<svg aria-hidden="true" style="position: absolute; width: 0; height: 0; overflow: hidden;" version="1.1" xmlns="http://www.w3.org/2000/svg" xmlns:xlink="http://www.w3.org/1999/xlink">
<defs>
<symbol id="icon-icon-blacklist" viewBox="0 0 32 32">
<path fill="#9eabb2" style="fill: var(--color1, #9eabb2)" d="M8.051 1.455c-1.976 0-3.585 1.594-3.585 3.546l-0.13 18.384 1.956 0.015 0.13-18.392c0-0.88 0.731-1.597 1.629-1.597h19.656v-1.956h-19.655z"></path>
<path fill="#9eabb2" style="fill: var(--color1, #9eabb2)" d="M27.707 1.455c-2.052 0.002-3.714 1.665-3.716 3.716v20.633c0 1.492-1.213 2.705-2.705 2.705-1.493-0.002-2.703-1.212-2.705-2.705v-2.378c0-0.54-0.437-0.978-0.977-0.978h-16.624c-0.54-0.001-0.978 0.437-0.978 0.978v2.38c0.003 2.573 2.089 4.658 4.662 4.661h0v-1.957c-1.494-0.002-2.704-1.212-2.705-2.705v-1.402h14.668v1.402c0.003 2.573 2.089 4.658 4.662 4.661h0c2.573-0.003 4.658-2.089 4.661-4.662v-15.288h4.498c0.54 0 0.978-0.438 0.978-0.978v-4.367c-0.002-2.052-1.665-3.714-3.716-3.716h-0zM29.467 8.56h-3.52v-3.389c0.001-0.972 0.788-1.759 1.76-1.76h0c0.972 0.001 1.759 0.788 1.76 1.76v3.389z"></path>
<path fill="#9eabb2" style="fill: var(--color1, #9eabb2)" d="M4.465 28.51h16.591v1.956h-16.591zM14.538 6.898h-5.052c-0.54 0-0.978 0.438-0.978 0.978s0.438 0.978 0.978 0.978v0h5.052c0.54 0 0.978-0.438 0.978-0.978s-0.438-0.978-0.978-0.978v0zM20.405 10.809h-10.919c-0.54 0-0.978 0.438-0.978 0.978s0.438 0.978 0.978 0.978h10.919c0.54 0 0.978-0.438 0.978-0.978s-0.438-0.978-0.978-0.978v0zM20.405 14.721h-10.919c-0.54 0-0.978 0.438-0.978 0.978s0.438 0.978 0.978 0.978v0h10.919c0.54 0 0.978-0.438 0.978-0.978s-0.438-0.978-0.978-0.978v0zM20.405 18.633h-10.919c-0.54 0-0.978 0.438-0.978 0.978s0.438 0.978 0.978 0.978v0h10.919c0.54 0 0.978-0.438 0.978-0.978s-0.438-0.978-0.978-0.978v0z"></path>
</symbol>
<symbol id="icon-icon-facebook" viewBox="0 0 32 32">
<path fill="#4c545c" style="fill: var(--color2, #4c545c)" d="M30.233 0h-28.467c-0.976 0-1.767 0.791-1.767 1.767v28.468c0 0.975 0.791 1.765 1.767 1.765h15.327v-12.392h-4.171v-4.829h4.171v-3.561c0-4.133 2.524-6.384 6.212-6.384 1.767 0 3.284 0.132 3.727 0.191v4.32l-2.557 0.001c-2.005 0-2.393 0.953-2.393 2.351v3.084h4.783l-0.623 4.829h-4.16v12.391h8.155c0.973 0 1.764-0.791 1.764-1.767v-28.467c0-0.976-0.791-1.767-1.767-1.767z"></path>
</symbol>
<symbol id="icon-icon-instagram" viewBox="0 0 32 32">
<path fill="#4c545c" style="fill: var(--color2, #4c545c)" d="M16 2.884c4.272 0 4.779 0.016 6.467 0.093 4.336 0.197 6.361 2.255 6.559 6.559 0.077 1.687 0.092 2.193 0.092 6.465 0 4.273-0.016 4.779-0.092 6.465-0.199 4.3-2.219 6.361-6.559 6.559-1.688 0.077-2.192 0.093-6.467 0.093-4.272 0-4.779-0.016-6.465-0.093-4.347-0.199-6.361-2.265-6.559-6.56-0.077-1.687-0.093-2.192-0.093-6.465 0-4.272 0.017-4.777 0.093-6.465 0.199-4.303 2.219-6.361 6.559-6.559 1.688-0.076 2.193-0.092 6.465-0.092zM16 0c-4.345 0-4.889 0.019-6.596 0.096-5.811 0.267-9.040 3.491-9.307 9.307-0.079 1.708-0.097 2.252-0.097 6.597s0.019 4.891 0.096 6.597c0.267 5.811 3.491 9.040 9.307 9.307 1.708 0.077 2.252 0.096 6.597 0.096s4.891-0.019 6.597-0.096c5.805-0.267 9.043-3.491 9.305-9.307 0.079-1.707 0.097-2.252 0.097-6.597s-0.019-4.889-0.096-6.596c-0.261-5.805-3.489-9.040-9.305-9.307-1.708-0.079-2.253-0.097-6.599-0.097zM16 7.784c-4.538 0-8.216 3.678-8.216 8.216s3.678 8.216 8.216 8.216v0c4.538 0 8.216-3.678 8.216-8.216s-3.678-8.216-8.216-8.216v0zM16 21.333c-2.946 0-5.333-2.388-5.333-5.333s2.388-5.333 5.333-5.333v0c2.946 0 5.333 2.388 5.333 5.333s-2.388 5.333-5.333 5.333v0zM24.541 5.54c-1.061 0-1.921 0.86-1.921 1.921s0.86 1.921 1.921 1.921v0c1.061 0 1.921-0.86 1.921-1.921s-0.86-1.921-1.921-1.921v0z"></path>
</symbol>
<symbol id="icon-icon-preview" viewBox="0 0 32 32">
<path fill="#9eabb2" style="fill: var(--color1, #9eabb2)" d="M31.398 14.766c-1.654-2.705-3.878-4.879-6.671-6.52s-5.744-2.463-8.851-2.463-6.057 0.821-8.851 2.463c-2.794 1.642-5.018 3.815-6.671 6.52-0.237 0.413-0.355 0.821-0.355 1.222s0.118 0.81 0.355 1.222c1.653 2.705 3.877 4.879 6.671 6.521s5.744 2.462 8.851 2.462c3.106 0 6.056-0.817 8.85-2.453s5.018-3.812 6.671-6.529c0.236-0.413 0.354-0.821 0.354-1.222s-0.118-0.81-0.354-1.223zM12.075 9.92c1.057-1.057 2.324-1.586 3.801-1.586 0.236 0 0.437 0.083 0.602 0.248s0.248 0.366 0.248 0.602c0 0.237-0.083 0.437-0.248 0.602-0.149 0.153-0.357 0.248-0.588 0.248-0.005 0-0.011-0-0.016-0h0.001c-1.016 0-1.884 0.36-2.605 1.081s-1.080 1.588-1.080 2.605c0 0.236-0.083 0.437-0.248 0.602-0.149 0.153-0.357 0.248-0.588 0.248-0.005 0-0.010-0-0.015-0h0.001c-0.237 0-0.437-0.083-0.603-0.248-0.153-0.149-0.248-0.358-0.248-0.588 0-0.005 0-0.010 0-0.015v0.001c0-1.476 0.529-2.743 1.586-3.8zM23.575 21.774c-2.369 1.435-4.934 2.153-7.699 2.153s-5.331-0.717-7.699-2.153c-2.368-1.436-4.337-3.364-5.908-5.786 1.795-2.788 4.045-4.873 6.751-6.255-0.679 1.128-1.081 2.49-1.081 3.946 0 0.014 0 0.029 0 0.043v-0.002c0 2.185 0.777 4.054 2.33 5.608 1.554 1.553 3.423 2.33 5.608 2.33s4.054-0.776 5.608-2.33c1.554-1.553 2.33-3.423 2.33-5.608 0-1.429-0.36-2.758-1.081-3.987 2.705 1.382 4.956 3.468 6.751 6.255-1.571 2.422-3.54 4.35-5.908 5.786z"></path>
</symbol>
<symbol id="icon-icon-text" viewBox="0 0 32 32">
<path fill="#9eabb2" style="fill: var(--color1, #9eabb2)" d="M15.886 14.876c0.178 0.275 0.836 1.964 1.474 3.663l0.475 1.443c0.663 1.802 1.365 3.769 2.105 5.902h-4.75c-0.292-0.988-0.529-1.687-0.786-2.378l0.089 0.273c-0.256-0.72-0.507-1.451-0.754-2.162h-7.68c-0.247 0.711-0.498 1.441-0.754 2.162-0.167 0.417-0.405 1.117-0.623 1.825l-0.074 0.28h-4.608c1.409-4.277 2.123-6.234 2.855-8.183l-0.75 2.277c1.107-3.13 1.766-4.819 2.446-6.498l-0.497 1.389c1.055-2.739 1.687-4.238 2.339-5.726l-0.461 1.182c0.616-1.431 1.256-2.788 1.92-4.21h4.238c0.644 1.422 1.28 2.778 1.906 4.21s1.256 2.958 1.892 4.551zM7.083 18.062h5.603c-0.302-0.853-0.596-1.669-0.881-2.446-0.454-1.29-0.728-1.995-1.012-2.696l0.201 0.563c-0.256-0.644-0.479-1.213-0.668-1.707s-0.341-0.882-0.455-1.167c-0.095 0.284-0.237 0.674-0.427 1.167 2.093-6.232 1.598-4.962 1.105-3.691l-2.57 7.531c-0.294 0.777-0.593 1.593-0.896 2.446zM31.147 4.622h-2.844v22.756h2.844v2.844h-8.533v-2.844h2.844v-22.756h-2.844v-2.844h8.533v2.844z"></path>
</symbol>
<symbol id="icon-icon-twitter" viewBox="0 0 32 32">
<path fill="#4c545c" style="fill: var(--color2, #4c545c)" d="M32 6.076c-1.098 0.5-2.372 0.864-3.708 1.027l-0.063 0.006c1.358-0.822 2.379-2.084 2.873-3.586l0.013-0.046c-1.2 0.725-2.597 1.277-4.085 1.579l-0.084 0.014c-1.199-1.278-2.898-2.073-4.783-2.073-0.003 0-0.006 0-0.009 0h0c-4.239 0-7.353 3.955-6.396 8.060-5.469-0.282-10.279-2.88-13.504-6.825l-0.026-0.033c-0.559 0.946-0.889 2.085-0.889 3.301 0 2.268 1.149 4.268 2.896 5.45l0.023 0.015c-1.096-0.036-2.115-0.336-3.005-0.838l0.033 0.017c-0.072 3.041 2.108 5.887 5.265 6.52-0.517 0.146-1.111 0.23-1.725 0.23-0.439 0-0.868-0.043-1.282-0.125l0.042 0.007c0.864 2.629 3.273 4.504 6.127 4.559l0.006 0c-2.22 1.754-5.060 2.814-8.147 2.814-0.554 0-1.101-0.034-1.637-0.101l0.064 0.006c2.84 1.849 6.315 2.949 10.047 2.949 0.006 0 0.012 0 0.018 0h-0.001c12.189 0 19.076-10.295 18.66-19.528 1.29-0.94 2.377-2.066 3.246-3.351l0.030-0.047z"></path>
</symbol>
<symbol id="icon-logo" viewBox="0 0 32 32">
<path fill="none" stroke="#26bba4" style="stroke: var(--color3, #26bba4)" stroke-linejoin="miter" stroke-linecap="butt" stroke-miterlimit="4" stroke-width="2.56" d="M30.72 16c0 8.13-6.59 14.72-14.72 14.72s-14.72-6.59-14.72-14.72c0-8.13 6.59-14.72 14.72-14.72s14.72 6.59 14.72 14.72z"></path>
<path fill="none" stroke="#26bba4" style="stroke: var(--color3, #26bba4)" stroke-linejoin="miter" stroke-linecap="round" stroke-miterlimit="4" stroke-width="2.56" d="M21.883 21.883c-3.249 3.249-8.517 3.249-11.766 0s-3.249-8.517 0-11.766 8.517-3.249 11.766 0"></path>
</symbol>
</defs>
</svg>
