<!-- Generated by IcoMoon.io -->
<svg version="1.1" xmlns="http://www.w3.org/2000/svg" width="32" height="32" viewBox="0 0 32 32">
<title>icon-blacklist</title>
<path fill="#9eabb2" d="M8.051 1.455c-1.976 0-3.585 1.594-3.585 3.546l-0.13 18.384 1.956 0.015 0.13-18.392c0-0.88 0.731-1.597 1.629-1.597h19.656v-1.956h-19.655z"></path>
<path fill="#9eabb2" d="M27.707 1.455c-2.052 0.002-3.714 1.665-3.716 3.716v20.633c0 1.492-1.213 2.705-2.705 2.705-1.493-0.002-2.703-1.212-2.705-2.705v-2.378c0-0.54-0.437-0.978-0.977-0.978h-16.624c-0.54-0.001-0.978 0.437-0.978 0.978v2.38c0.003 2.573 2.089 4.658 4.662 4.661h0v-1.957c-1.494-0.002-2.704-1.212-2.705-2.705v-1.402h14.668v1.402c0.003 2.573 2.089 4.658 4.662 4.661h0c2.573-0.003 4.658-2.089 4.661-4.662v-15.288h4.498c0.54 0 0.978-0.438 0.978-0.978v-4.367c-0.002-2.052-1.665-3.714-3.716-3.716h-0zM29.467 8.56h-3.52v-3.389c0.001-0.972 0.788-1.759 1.76-1.76h0c0.972 0.001 1.759 0.788 1.76 1.76v3.389z"></path>
<path fill="#9eabb2" d="M4.465 28.51h16.591v1.956h-16.591zM14.538 6.898h-5.052c-0.54 0-0.978 0.438-0.978 0.978s0.438 0.978 0.978 0.978v0h5.052c0.54 0 0.978-0.438 0.978-0.978s-0.438-0.978-0.978-0.978v0zM20.405 10.809h-10.919c-0.54 0-0.978 0.438-0.978 0.978s0.438 0.978 0.978 0.978h10.919c0.54 0 0.978-0.438 0.978-0.978s-0.438-0.978-0.978-0.978v0zM20.405 14.721h-10.919c-0.54 0-0.978 0.438-0.978 0.978s0.438 0.978 0.978 0.978v0h10.919c0.54 0 0.978-0.438 0.978-0.978s-0.438-0.978-0.978-0.978v0zM20.405 18.633h-10.919c-0.54 0-0.978 0.438-0.978 0.978s0.438 0.978 0.978 0.978v0h10.919c0.54 0 0.978-0.438 0.978-0.978s-0.438-0.978-0.978-0.978v0z"></path>
</svg>
