<!-- Generated by IcoMoon.io -->
<svg version="1.1" xmlns="http://www.w3.org/2000/svg" width="32" height="32" viewBox="0 0 32 32">
<title>icon-preview</title>
<path fill="#9eabb2" d="M31.398 14.766c-1.654-2.705-3.878-4.879-6.671-6.52s-5.744-2.463-8.851-2.463-6.057 0.821-8.851 2.463c-2.794 1.642-5.018 3.815-6.671 6.52-0.237 0.413-0.355 0.821-0.355 1.222s0.118 0.81 0.355 1.222c1.653 2.705 3.877 4.879 6.671 6.521s5.744 2.462 8.851 2.462c3.106 0 6.056-0.817 8.85-2.453s5.018-3.812 6.671-6.529c0.236-0.413 0.354-0.821 0.354-1.222s-0.118-0.81-0.354-1.223zM12.075 9.92c1.057-1.057 2.324-1.586 3.801-1.586 0.236 0 0.437 0.083 0.602 0.248s0.248 0.366 0.248 0.602c0 0.237-0.083 0.437-0.248 0.602-0.149 0.153-0.357 0.248-0.588 0.248-0.005 0-0.011-0-0.016-0h0.001c-1.016 0-1.884 0.36-2.605 1.081s-1.080 1.588-1.080 2.605c0 0.236-0.083 0.437-0.248 0.602-0.149 0.153-0.357 0.248-0.588 0.248-0.005 0-0.010-0-0.015-0h0.001c-0.237 0-0.437-0.083-0.603-0.248-0.153-0.149-0.248-0.358-0.248-0.588 0-0.005 0-0.010 0-0.015v0.001c0-1.476 0.529-2.743 1.586-3.8zM23.575 21.774c-2.369 1.435-4.934 2.153-7.699 2.153s-5.331-0.717-7.699-2.153c-2.368-1.436-4.337-3.364-5.908-5.786 1.795-2.788 4.045-4.873 6.751-6.255-0.679 1.128-1.081 2.49-1.081 3.946 0 0.014 0 0.029 0 0.043v-0.002c0 2.185 0.777 4.054 2.33 5.608 1.554 1.553 3.423 2.33 5.608 2.33s4.054-0.776 5.608-2.33c1.554-1.553 2.33-3.423 2.33-5.608 0-1.429-0.36-2.758-1.081-3.987 2.705 1.382 4.956 3.468 6.751 6.255-1.571 2.422-3.54 4.35-5.908 5.786z"></path>
</svg>
