<!-- Generated by IcoMoon.io -->
<svg version="1.1" xmlns="http://www.w3.org/2000/svg" width="32" height="32" viewBox="0 0 32 32">
<title>icon-twitter</title>
<path fill="#4c545c" d="M32 6.076c-1.098 0.5-2.372 0.864-3.708 1.027l-0.063 0.006c1.358-0.822 2.379-2.084 2.873-3.586l0.013-0.046c-1.2 0.725-2.597 1.277-4.085 1.579l-0.084 0.014c-1.199-1.278-2.898-2.073-4.783-2.073-0.003 0-0.006 0-0.009 0h0c-4.239 0-7.353 3.955-6.396 8.060-5.469-0.282-10.279-2.88-13.504-6.825l-0.026-0.033c-0.559 0.946-0.889 2.085-0.889 3.301 0 2.268 1.149 4.268 2.896 5.45l0.023 0.015c-1.096-0.036-2.115-0.336-3.005-0.838l0.033 0.017c-0.072 3.041 2.108 5.887 5.265 6.52-0.517 0.146-1.111 0.23-1.725 0.23-0.439 0-0.868-0.043-1.282-0.125l0.042 0.007c0.864 2.629 3.273 4.504 6.127 4.559l0.006 0c-2.22 1.754-5.060 2.814-8.147 2.814-0.554 0-1.101-0.034-1.637-0.101l0.064 0.006c2.84 1.849 6.315 2.949 10.047 2.949 0.006 0 0.012 0 0.018 0h-0.001c12.189 0 19.076-10.295 18.66-19.528 1.29-0.94 2.377-2.066 3.246-3.351l0.030-0.047z"></path>
</svg>
