<!-- Generated by IcoMoon.io -->
<svg version="1.1" xmlns="http://www.w3.org/2000/svg" width="32" height="32" viewBox="0 0 32 32">
<title>icon-text</title>
<path fill="#9eabb2" d="M15.886 14.876c0.178 0.275 0.836 1.964 1.474 3.663l0.475 1.443c0.663 1.802 1.365 3.769 2.105 5.902h-4.75c-0.292-0.988-0.529-1.687-0.786-2.378l0.089 0.273c-0.256-0.72-0.507-1.451-0.754-2.162h-7.68c-0.247 0.711-0.498 1.441-0.754 2.162-0.167 0.417-0.405 1.117-0.623 1.825l-0.074 0.28h-4.608c1.409-4.277 2.123-6.234 2.855-8.183l-0.75 2.277c1.107-3.13 1.766-4.819 2.446-6.498l-0.497 1.389c1.055-2.739 1.687-4.238 2.339-5.726l-0.461 1.182c0.616-1.431 1.256-2.788 1.92-4.21h4.238c0.644 1.422 1.28 2.778 1.906 4.21s1.256 2.958 1.892 4.551zM7.083 18.062h5.603c-0.302-0.853-0.596-1.669-0.881-2.446-0.454-1.29-0.728-1.995-1.012-2.696l0.201 0.563c-0.256-0.644-0.479-1.213-0.668-1.707s-0.341-0.882-0.455-1.167c-0.095 0.284-0.237 0.674-0.427 1.167 2.093-6.232 1.598-4.962 1.105-3.691l-2.57 7.531c-0.294 0.777-0.593 1.593-0.896 2.446zM31.147 4.622h-2.844v22.756h2.844v2.844h-8.533v-2.844h2.844v-22.756h-2.844v-2.844h8.533v2.844z"></path>
</svg>
